# xmcd
#
# Track frame offsets:
#	150
#	10095
#	21036
#	33663
#	47968
#	58595
#	66290
#	77412
#	85546
#	95233
#	106515
#	119755
#	133378
#	146645
#	158624
#	170575
#	180074
#	193098
#	204227
#	216700
#	228874
#
# Disc length: 3218 seconds
#
# Revision: 0
# Processed by: cddbd v1.5.2PL0 Copyright (c) Steve Scherf et al.
# Submitted via: SynApp - FreeCDDB Version: 2.3
#
DISCID=200c9015
DTITLE=Various Artist - Golden Sound Of Music - The Country Stars - CD1
DYEAR=1989
DGENRE=Country
TTITLE0=Dave Dudley - Oh Lonesome Me
TTITLE1=Patsy Cline - There He Goes
TTITLE2=George Jones - I Love You Because
TTITLE3=Cowboy Copas - A Satiesfied Mind
TTITLE4=Carl Belew - Am I That Easy To Forget
TTITLE5=Roger Miller - Do Waka Do
TTITLE6=Jerry Lee  Lewis - CC Rider
TTITLE7=Johnny Cash - Country Boy
TTITLE8=Hank Locklin - Please Help Me I'm Falling
TTITLE9=Lynn Anderson - You're My Man
TTITLE10=Gene Pitney - 24 Hours From Tulsa
TTITLE11=Patti Page - Changing Partners
TTITLE12=Joe South - Walking A Mille In My Shoes
TTITLE13=Flatt and Scruggs - Foggy Mountain Breakdown
TTITLE14=George Jones - Window Up Above
TTITLE15=Hank Locklin - Send Me The pillow That You Dream On
TTITLE16=Lynn Anderson - Top Of The World
TTITLE17=Roger Miller - Little Green Apples
TTITLE18=Patti Page - Alleghany Moon
TTITLE19=George Jones - Take Me
TTITLE20=Al Dexter - Pistol Packin' Mama
EXTD=
EXTT0=
EXTT1=
EXTT2=
EXTT3=
EXTT4=
EXTT5=
EXTT6=
EXTT7=
EXTT8=
EXTT9=
EXTT10=
EXTT11=
EXTT12=
EXTT13=
EXTT14=
EXTT15=
EXTT16=
EXTT17=
EXTT18=
EXTT19=
EXTT20=
PLAYORDER=
